<?xml version="1.0" encoding="UTF-8"?>
<svg width="16px" height="16px" viewBox="0 0 16 16" version="1.1" xmlns="http://www.w3.org/2000/svg" xmlns:xlink="http://www.w3.org/1999/xlink">
    <title>添加</title>
    <g id="页面" stroke="none" stroke-width="1" fill="none" fill-rule="evenodd">
        <g id="4-3-哈希牛牛" transform="translate(-378.000000, -684.000000)" fill="#000000" fill-rule="nonzero">
            <g id="添加" transform="translate(378.000000, 684.000000)">
                <rect id="矩形" opacity="0" x="0" y="0" width="16" height="16"></rect>
                <path d="M14,16 L2,16 C0.9,16 0,15.1 0,14 L0,2 C0,0.9 0.9,0 2,0 L14,0 C15.1,0 16,0.9 16,2 L16,14 C16,15.1 15.1,16 14,16 Z M2,1 C1.4,1 1,1.4 1,2 L1,14 C1,14.6 1.4,15 2,15 L14,15 C14.6,15 15,14.6 15,14 L15,2 C15,1.4 14.6,1 14,1 L2,1 Z M12,8.5 L4,8.5 C3.7,8.5 3.5,8.3 3.5,8 C3.5,7.7 3.7,7.5 4,7.5 L12,7.5 C12.3,7.5 12.5,7.7 12.5,8 C12.5,8.3 12.3,8.5 12,8.5 Z M8,12.5 C7.7,12.5 7.5,12.3 7.5,12 L7.5,4 C7.5,3.7 7.7,3.5 8,3.5 C8.3,3.5 8.5,3.7 8.5,4 L8.5,12 C8.5,12.3 8.3,12.5 8,12.5 Z" id="形状"></path>
            </g>
        </g>
    </g>
</svg>