<svg xmlns="http://www.w3.org/2000/svg" xmlns:xlink="http://www.w3.org/1999/xlink" width="45" height="45" version="1.1" viewBox="0 0 45 45"><title>icon-底部</title><defs><path id="path-1" d="M17.5,0 C7.83501688,0 0,7.83501688 0,17.5 C0,27.1649831 7.83501688,35 17.5,35 C27.1649831,35 35,27.1649831 35,17.5 C35,12.8587114 33.1562553,8.40751795 29.8743687,5.12563133 C26.592482,1.84374471 22.1412886,0 17.5,0 Z"/><filter id="filter-2" width="148.6%" height="148.6%" x="-24.3%" y="-18.6%" filterUnits="objectBoundingBox"><feMorphology in="SourceAlpha" operator="dilate" radius=".5" result="shadowSpreadOuter1"/><feOffset dx="0" dy="2" in="shadowSpreadOuter1" result="shadowOffsetOuter1"/><feGaussianBlur in="shadowOffsetOuter1" result="shadowBlurOuter1" stdDeviation="2"/><feColorMatrix in="shadowBlurOuter1" type="matrix" values="0 0 0 0 0.435294118 0 0 0 0 0.474509804 0 0 0 0 0.533333333 0 0 0 0.502152023 0"/></filter></defs><g id="页面" fill="none" fill-rule="evenodd" stroke="none" stroke-width="1"><g id="3-1-投注1" fill-rule="nonzero" transform="translate(-360.000000, -437.000000)"><g id="浮标" transform="translate(360.000000, 424.000000)"><g id="icon-底部" transform="translate(5.000000, 16.000000)"><g id="形状"><use fill="#000" fill-opacity="1" filter="url(#filter-2)" xlink:href="#path-1"/><use fill="#FFF" xlink:href="#path-1"/></g><path id="路径" fill="#898D90" d="M25.185219,14.4778168 L18.3037265,22.128772 C18.0926166,22.365519 17.7966462,22.5 17.4867153,22.5 C17.1767843,22.5 16.8808139,22.365519 16.6697041,22.128772 L9.80149622,14.4639564 C9.52859095,14.1594174 9.43213753,13.7261093 9.54846904,13.327255 C9.66480054,12.9284008 9.97624345,12.6245958 10.3654802,12.5302805 C10.754717,12.4359653 11.1626133,12.5654684 11.4355186,12.8700074 L17.5066424,19.6200349 L23.5644814,12.8838678 C23.8373867,12.5793288 24.245283,12.4498257 24.6345198,12.5441409 C25.0237565,12.6384562 25.3351995,12.9422612 25.451531,13.3411154 C25.5678625,13.7399697 25.471409,14.1732778 25.1985038,14.4778168 L25.185219,14.4778168 Z"/></g></g></g></g></svg>