<svg xmlns="http://www.w3.org/2000/svg" xmlns:xlink="http://www.w3.org/1999/xlink" width="13" height="13" version="1.1" viewBox="0 0 13 13"><title>icon-清空</title><g id="页面" fill="none" fill-rule="evenodd" stroke="none" stroke-width="1"><g id="5-2-修改昵称" fill-rule="nonzero" transform="translate(-361.000000, -216.000000)"><g id="icon-清空" transform="translate(361.000000, 216.000000)"><rect id="矩形" width="13" height="13" x="0" y="0" fill="#000" opacity="0"/><path id="形状" fill="#999" d="M7.17205066,6.50993582 L7.17205066,6.50993582 L6.83601789,6.17390305 L7.17205066,6.50993582 L7.17205066,6.50993582 Z M6.5,0 C2.91000332,0 0,2.9096166 0,6.49961328 C0,10.08961 2.91000332,12.9996133 6.5,12.9996133 C10.0899967,12.9996133 13,10.0895951 13,6.49961328 C13,2.90963147 10.0899967,0 6.5,0 L6.5,0 Z M9.85909316,9.19696342 L9.18744408,9.86902895 L6.50040161,7.18158488 L3.81295752,9.86902895 L3.14129358,9.19696342 L5.82873765,6.50993581 L3.14129358,3.82287845 L3.81295752,3.15079803 L6.83603277,6.17388816 L6.50041648,5.838257 L9.18744409,3.15079803 L9.85909316,3.82287845 L7.17205066,6.50993582 L9.85909316,9.19696342 L9.85909316,9.19696342 Z"/></g></g></g></svg>