<svg xmlns="http://www.w3.org/2000/svg" xmlns:xlink="http://www.w3.org/1999/xlink" width="30" height="30" version="1.1" viewBox="0 0 30 30"><title>icon-表情</title><g id="页面" fill="none" fill-rule="evenodd" stroke="none" stroke-width="1"><g id="4-3-哈希牛牛" fill="#999" fill-rule="nonzero" transform="translate(-329.000000, -627.000000)"><g id="输入懒" transform="translate(0.000000, 617.000000)"><g id="icon-表情" transform="translate(329.000000, 10.000000)"><path id="形状" d="M15,30 C12.9765101,30 11.0100671,29.6040268 9.16107383,28.8221477 C7.37583893,28.0671141 5.77181208,26.9865772 4.39261745,25.6073826 C3.01677852,24.2315436 1.93288591,22.6275168 1.17785235,20.8389262 C0.395973154,18.9899329 0,17.0234899 0,15 C0,12.9765101 0.395973154,11.0100671 1.17785235,9.16107383 C1.93288591,7.37583893 3.01342282,5.77181208 4.39261745,4.39261745 C5.76845638,3.01677852 7.37248322,1.93288591 9.16107383,1.17785235 C11.0100671,0.395973154 12.9765101,0 15,0 C17.0234899,0 18.9899329,0.395973154 20.8389262,1.17785235 C22.6241611,1.93288591 24.2281879,3.01342282 25.6073826,4.39261745 C26.9832215,5.76845638 28.0671141,7.37248322 28.8221477,9.16107383 C29.6040268,11.0100671 30,12.9765101 30,15 C30,17.0234899 29.6040268,18.9899329 28.8221477,20.8389262 C28.0671141,22.6241611 26.9865772,24.2281879 25.6073826,25.6073826 C24.2315436,26.9832215 22.6275168,28.0671141 20.8389262,28.8221477 C18.9899329,29.6040268 17.0268456,30 15,30 Z M15,1.87919463 C13.2281879,1.87919463 11.5100671,2.22483221 9.89261745,2.90939597 C8.32885906,3.5704698 6.9261745,4.51677852 5.72147651,5.72147651 C4.51677852,6.9261745 3.5704698,8.32885906 2.90939597,9.89261745 C2.22483221,11.5100671 1.87919463,13.2281879 1.87919463,15 C1.87919463,16.7718121 2.22483221,18.4899329 2.90939597,20.1073826 C3.5704698,21.6711409 4.51677852,23.0738255 5.72147651,24.2785235 C6.9261745,25.4832215 8.32885906,26.4295302 9.89261745,27.090604 C11.5100671,27.7751678 13.2281879,28.1208054 15,28.1208054 C16.7718121,28.1208054 18.4899329,27.7751678 20.1073826,27.090604 C21.6711409,26.4295302 23.0738255,25.4832215 24.2785235,24.2785235 C25.4832215,23.0738255 26.4295302,21.6711409 27.090604,20.1073826 C27.7751678,18.4899329 28.1208054,16.7718121 28.1208054,15 C28.1208054,13.2281879 27.7751678,11.5100671 27.090604,9.89261745 C26.4295302,8.32885906 25.4832215,6.9261745 24.2785235,5.72147651 C23.0738255,4.51677852 21.6711409,3.5704698 20.1073826,2.90939597 C18.4899329,2.22818792 16.7718121,1.87919463 15,1.87919463 Z"/><path id="路径" d="M17.885906,12.0268456 C17.885906,13.0406032 18.7077189,13.8624161 19.7214765,13.8624161 C20.7352341,13.8624161 21.557047,13.0406032 21.557047,12.0268456 C21.557047,11.0130881 20.7352341,10.1912752 19.7214765,10.1912752 C18.7077189,10.1912752 17.885906,11.0130881 17.885906,12.0268456 L17.885906,12.0268456 Z"/><path id="路径" d="M8.43288591,12.0268456 C8.43288591,13.0406032 9.2546988,13.8624161 10.2684564,13.8624161 C11.282214,13.8624161 12.1040268,13.0406032 12.1040268,12.0268456 C12.1040268,11.3710595 11.7541691,10.765088 11.1862416,10.4371949 C10.6183141,10.1093018 9.91859861,10.1093018 9.35067113,10.4371949 C8.78274364,10.765088 8.43288591,11.3710595 8.43288591,12.0268456 L8.43288591,12.0268456 Z"/><path id="路径" d="M15,23.8590604 C13.5704698,23.8590604 12.1510067,23.5100671 10.8926174,22.8489933 C9.98657718,22.3758389 9.16442953,21.738255 8.47315436,20.9865772 C8.09060403,20.5704698 8.15436242,19.9127517 8.61409396,19.5838926 C9,19.3087248 9.53020134,19.3590604 9.85234899,19.7080537 C10.3993289,20.3053691 11.0503356,20.8087248 11.7684564,21.1845638 C12.7718121,21.7114094 13.8624161,21.9765101 15.0033557,21.9765101 C16.1442953,21.9765101 17.2348993,21.7080537 18.238255,21.1845638 C18.9563758,20.8087248 19.6073826,20.3053691 20.1543624,19.7080537 C20.4731544,19.3590604 21.0067114,19.3087248 21.3926174,19.5838926 C21.852349,19.9127517 21.9161074,20.5704698 21.533557,20.9865772 C20.8422819,21.7416107 20.0201342,22.3758389 19.114094,22.8489933 C17.8489933,23.5100671 16.4295302,23.8590604 15,23.8590604 Z"/></g></g></g></g></svg>