<svg xmlns="http://www.w3.org/2000/svg" xmlns:xlink="http://www.w3.org/1999/xlink" width="30" height="30" version="1.1" viewBox="0 0 30 30"><title>icon-发送</title><g id="页面" fill="none" fill-rule="evenodd" stroke="none" stroke-width="1"><g id="4-3-哈希牛牛" fill-rule="nonzero" transform="translate(-374.000000, -627.000000)"><g id="输入懒" transform="translate(0.000000, 617.000000)"><g id="icon-发送" transform="translate(374.000000, 10.000000)"><path id="路径" fill="#149EDE" d="M4.39358341,25.6067868 C10.25155,31.464549 19.7490247,31.4643832 25.6067868,25.6064166 C31.464549,19.74845 31.4643832,10.2509753 25.6064166,4.39321316 C19.74845,-1.46454897 10.2509753,-1.46438321 4.39321316,4.39358341 C-1.46454897,10.25155 -1.46438321,19.7490247 4.39358341,25.6067868 L4.39358341,25.6067868 Z"/><path id="路径" fill="#FFF" d="M6.32127404,12.0326013 L21.1986779,8.38536571 C21.9180288,8.20868301 22.5201923,8.9478657 22.2010817,9.6167359 L15.5736779,23.5313993 C15.2311298,24.2489474 14.1872596,24.1804378 13.9438702,23.4232263 L12.2527644,18.162409 C12.1574302,17.8639865 12.2274148,17.5373916 12.4366587,17.3042359 L15.3284856,14.098707 C15.5051683,13.9021926 15.2689904,13.6083224 15.040024,13.7435388 L11.2052885,15.9809186 C10.9382044,16.1366387 10.6089862,16.1407454 10.338101,15.9917359 L6.10492789,13.6551974 C5.40540866,13.2693801 5.54423078,12.223707 6.32127404,12.0326013 Z"/></g></g></g></g></svg>