<svg xmlns="http://www.w3.org/2000/svg" xmlns:xlink="http://www.w3.org/1999/xlink" width="12" height="12" version="1.1" viewBox="0 0 12 12"><title>图标/刷新</title><g id="页面" fill="none" fill-rule="evenodd" stroke="none" stroke-width="1"><g id="4-3-哈希牛牛" transform="translate(-384.000000, -743.000000)"><g id="金额" transform="translate(218.000000, 739.000000)"><g id="图标/刷新" transform="translate(162.000000, 0.000000)"><rect id="矩形" width="20" height="20" x="0" y="0" fill="#D8D8D8" opacity="0"/><g id="刷新" fill="#000" fill-rule="nonzero" transform="translate(3.333333, 3.333333)"><rect id="矩形" width="13.333" height="13.333" x="0" y="0" opacity="0"/><path id="形状" d="M2.4517599,8.97712418 C3.28508505,10.5037876 4.89778705,11.4934641 6.6952895,11.4934641 C9.13353124,11.4934641 11.1817239,9.67872549 11.4876562,7.28461111 C11.5228852,7.00891176 11.7751668,6.81394118 12.0511482,6.84912418 C12.3271295,6.88433007 12.5223029,7.13636438 12.4870625,7.41207516 C12.1171181,10.3071928 9.64221623,12.5 6.6952895,12.5 C4.70581943,12.5 2.90364573,11.4967239 1.84085705,9.91045752 L1.84085705,11.2303922 C1.84085705,11.5083333 1.61530913,11.7336601 1.33709519,11.7336601 C1.05888126,11.7336601 0.833333333,11.5083333 0.833333333,11.2303922 L0.833333333,8.47385621 C0.833333333,8.19591503 1.05888126,7.97058824 1.33709519,7.97058824 L4.09633628,7.97058824 C4.37455021,7.97058824 4.60009814,8.19591503 4.60009814,8.47385621 C4.60009814,8.75179739 4.37455021,8.97712418 4.09633628,8.97712418 L2.4517599,8.97712418 Z M10.8815734,4.35620915 C10.0482483,2.82954575 8.43554629,1.83986928 6.63804383,1.83986928 C4.19980209,1.83986928 2.15160942,3.65460784 1.84567713,6.04872222 C1.81044815,6.32442157 1.5581665,6.51939216 1.28218515,6.48420915 C1.00620379,6.44900327 0.811030422,6.19696895 0.846270854,5.92125817 C1.21621524,3.02614052 3.69111711,0.833333333 6.63804383,0.833333333 C8.6275139,0.833333333 10.4296876,1.83660948 11.4924763,3.42287582 L11.4924763,2.10294118 C11.4924763,1.825 11.7180242,1.5996732 11.9962381,1.5996732 C12.2744521,1.5996732 12.5,1.825 12.5,2.10294118 L12.5,4.85947712 C12.5,5.1374183 12.2744521,5.3627451 11.9962381,5.3627451 L9.23699706,5.3627451 C8.95878312,5.3627451 8.7332352,5.1374183 8.7332352,4.85947712 C8.7332352,4.58153595 8.95878312,4.35620915 9.23699706,4.35620915 L10.8815734,4.35620915 Z"/></g></g></g></g></g></svg>